# AST/ASF file generated using VICON BodyLanguage
# -----------------------------------------------
:version 1.10
:name VICON
:units
  mass 1.0
  length 0.45
  angle deg
:documentation
   .ast/.asf automatically generated from VICON data using
   VICON BodyBuilder and BodyLanguage model FoxedUp or BRILLIANT.MOD
:root
   order TX TY TZ RX RY RZ
   axis XYZ
   position 0 0 0  
   orientation 0 0 0 
:bonedata
  begin
     id 1 
     name lhipjoint
     direction 0.561001 -0.76473 0.316963 
     length 2.4722 
     axis 0 0 0  XYZ
  end
  begin
     id 2 
     name lfemur
     direction 0.34202 -0.939693 0  
     length 7.59403  
     axis 0 0 20  XYZ
    dof rx ry rz
    limits (-160.0 20.0)
           (-70.0 70.0)
           (-60.0 70.0)
  end
  begin
     id 3 
     name ltibia
     direction 0.34202 -0.939693 0   
     length 7.89655   
     axis 0 0 20   XYZ
    dof rx
    limits (-10.0 170.0)
  end
  begin
     id 4 
     name lfoot
     direction 0.061296 -0.168409 0.98381   
     length 2.73287   
     axis -90 7.62852e-016 20   XYZ
    dof rx rz
    limits (-45.0 90.0)
           (-70.0 20.0)
  end
  begin
     id 5 
     name ltoes
     direction 1.53547e-011 -4.21984e-011 1   
     length 1.37057   
     axis -90 7.62852e-016 20   XYZ
    dof rx
    limits (-90.0 20.0)
  end
  begin
     id 6 
     name rhipjoint
     direction -0.559611 -0.765599 0.317323   
     length 2.46939  
     axis 0 0 0  XYZ 
  end
  begin
     id 7 
     name rfemur
     direction -0.34202 -0.939693 0   
     length 7.53712   
     axis 0 0 -20   XYZ
    dof rx ry rz
    limits (-160.0 20.0)
           (-70.0 70.0)
           (-70.0 60.0)
  end
  begin
     id 8 
     name rtibia
     direction -0.34202 -0.939693 0   
     length 8.12549   
     axis 0 0 -20   XYZ
    dof rx
    limits (-10.0 170.0)
 end
 begin
     id 9 
     name rfoot
     direction -0.066984 -0.184037 0.980634   
     length 2.67541  
     axis -90 -7.62852e-016 -20   XYZ
    dof rx rz
    limits (-45.0 90.0)
           (-20.0 70.0)
  end
  begin
     id 10 
     name rtoes
     direction -1.53549e-011 -4.21786e-011 1   
     length 1.34085   
     axis -90 -7.62852e-016 -20   XYZ
    dof rx
    limits (-90.0 20.0)
  end
  begin
     id 11 
     name lowerback
     direction -0.0522728 0.992594 -0.109658   
     length 2.05633   
     axis 0 0 0   XYZ
    dof rx ry rz
    limits (-20.0 45.0)
           (-30.0 30.0)
           (-30.0 30.0)
  end
  begin
     id 12 
     name upperback
     direction 0.00589338 0.999977 0.00335704   
     length 2.05845   
     axis 0 0 0   XYZ
    dof rx ry rz
    limits (-20.0 45.0)
           (-30.0 30.0)
           (-30.0 30.0)
  end
  begin
     id 13 
     name thorax
     direction 0.0292928 0.998059 0.0549487   
     length 2.09281   
     axis 0 0 0   XYZ
    dof rx ry rz
    limits (-20.0 45.0)
           (-30.0 30.0)
           (-30.0 30.0)
  end
  begin
     id 14 
     name lowerneck
     direction 0.0356368 0.980775 0.191858   
     length 1.84767   
     axis 0 0 0   XYZ
    dof rx ry rz
    limits (-20.0 45.0)
           (-30.0 30.0)
           (-30.0 30.0)
  end
  begin
     id 15 
     name upperneck
     direction -0.0227605 0.98931 -0.14404   
     length 1.89582   
     axis 0 0 0   XYZ
    dof rx ry rz
    limits (-20.0 45.0)
           (-30.0 30.0)
           (-30.0 30.0)
  end
  begin
     id 16
     name head
     direction -0.00932985 0.997511 -0.0698904  
     length 1.90213  
     axis 0 0 0   XYZ
    dof rx ry rz
    limits (-20.0 45.0)
           (-30.0 30.0)
           (-30.0 30.0)
  end
  begin
     id 17 
     name lclavicle
     direction 0.873442 0.479511 0.0846686  
     length 3.41193  
     axis 0 0 0   XYZ
    dof ry rz
    limits (-20.0 10.0)
           (0.0 20.0)
  end
  begin
     id 18 
     name lhumerus
     direction 1 -4.4897e-011 -5.62117e-018   
     length 5.59864   
     axis 180 -30 -90   XYZ
    dof rx ry rz
    limits (-60.0 90.0)
           (-90.0 90.0)
           (-90.0 90.0)
  end
  begin
     id 19
     name lradius
     direction 1 -4.48966e-011 -6.26295e-027   
     length 3.59542   
     axis 180 -30 -90   XYZ
    dof rx
    limits (-10.0 170.0)
  end
  begin
     id 20
     name lwrist
     direction 1 -4.48947e-011 -1.74096e-026   
     length 1.79771   
     axis 1.04567e-014 90 90   XYZ
    dof ry
    limits (-180.0 0.0)
 end
  begin
     id 21 
     name lhand
     direction 1 -4.49085e-011 -3.48469e-026   
     length 0.572014   
     axis 2.22196e-014 90 90   XYZ
    dof rx rz
    limits (-90.0 90.0)
           (-45.0 45.0)
  end
  begin
     id 22 
     name lfingers
     direction 1 -4.48884e-011 -6.96135e-026   
     length 0.461173   
     axis 4.44383e-014 90 90   XYZ
    dof rx
    limits (0.0 90.0)
  end
  begin
     id 23
     name lthumb
     direction 0.707107 -6.34976e-011 0.707107   
     length 0.662154   
     axis -90 45 -5.4397e-014   XYZ
    dof rx rz
    limits (-45.0 45.0)
           (-45.0 45.0)
  end
  begin
     id 24 
     name rclavicle
     direction -0.890242 0.443271 0.104786   
     length 3.46753  
     axis 0 0 0   XYZ 
    dof ry rz
    limits (-10.0 20.0)
           (-20.0 0.0)
  end
  begin
     id 25 
     name rhumerus
     direction -1 -4.48963e-011 -5.41723e-018  
     length 5.8094   
     axis 180 30 90   XYZ
    dof rx ry rz
    limits (-90.0 60.0)
           (-90.0 90.0)
           (-90.0 90.0)
  end
  begin
     id 26 
     name rradius
     direction -1 -4.48958e-011 -6.51059e-027   
     length 3.66953   
     axis 180 30 90   XYZ
    dof rx
    limits (-10.0 170.0)
  end
  begin
     id 27 
     name rwrist
     direction -1 -4.48975e-011 -1.74124e-026   
     length 1.83476   
     axis 1.04567e-014 -90 -90   XYZ
    dof ry
    limits (-180.0 0.0)
  end
  begin
     id 28
     name rhand
     direction -1 -4.49013e-011 -3.48326e-026   
     length 0.57843   
     axis 2.22196e-014 -90 -90   XYZ
    dof rx rz
    limits (-90.0 90.0)
           (-45.0 45.0)
  end
  begin
     id 29
     name rfingers
     direction -1 -4.49023e-011 -6.9669e-026   
     length 0.466345   
     axis 4.44383e-014 -90 -90   XYZ
    dof rx
    limits (0.0 90.0)
  end
  begin
     id 30
     name rthumb
     direction -0.707107 -6.34926e-011 0.707107   
     length 0.669581   
     axis -90 -45 5.4397e-014   XYZ
    dof rx rz
    limits (-45.0 45.0)
           (-45.0 45.0)
  end
:hierarchy
  begin
    root lhipjoint rhipjoint lowerback
    lhipjoint lfemur
    lfemur ltibia
    ltibia lfoot
    lfoot ltoes
    rhipjoint rfemur
    rfemur rtibia
    rtibia rfoot
    rfoot rtoes
    lowerback upperback
    upperback thorax
    thorax lowerneck lclavicle rclavicle
    lowerneck upperneck
    upperneck head
    lclavicle lhumerus
    lhumerus lradius
    lradius lwrist
    lwrist lhand lthumb
    lhand lfingers
    rclavicle rhumerus
    rhumerus rradius
    rradius rwrist
    rwrist rhand rthumb
    rhand rfingers
  end

#!OML:ASF H:\SkateBoarding\Project 1\Capture day 1\Session 1\Skater.ASF
:FULLY-SPECIFIED
:DEGREES
113
root -10.3172 19.7483 5.6339 12.6831 102.91 4.87195
lowerback 7.87475 -1.88219 -7.39227
upperback -1.081 -3.28452 -2.21732
thorax -5.27698 -1.40254 2.21775
lowerneck -10.3043 -5.93515 -1.33257
upperneck 45.1751 -6.33918 1.11345
head 19.1157 -1.73779 -0.0699068
rclavicle 6.12257e-014 7.4743e-014
rhumerus -41.9337 4.00883 -51.0815
rradius 65.56
rwrist -25.948
rhand -50.1968 -7.55158
rfingers 7.12502
rthumb -22.7779 -36.2268
lclavicle 6.12257e-014 7.4743e-014
lhumerus -16.9491 -18.4302 55.178
lradius 67.9043
lwrist 26.2805
lhand -35.5395 5.01827
lfingers 7.12502
lthumb -8.66544 34.8204
rfemur -11.3328 5.30187 17.2943
rtibia 35.4669
rfoot -21.3564 14.1896
rtoes 5.10877
lfemur -13.2761 -16.0122 -11.4752
ltibia 39.5596
lfoot -39.0544 4.62107
ltoes -25.7628
114
root -10.2309 19.742 5.95724 12.443 103.133 4.74582
lowerback 7.73785 -1.85537 -7.24505
upperback -1.12892 -3.22396 -2.13115
thorax -5.25774 -1.37755 2.21478
lowerneck -10.2167 -5.99138 -1.47695
upperneck 45.3181 -6.23859 0.871323
head 19.1763 -1.74093 -0.137566
rclavicle 1.21259e-014 4.13472e-014
rhumerus -41.965 3.14259 -51.4235
rradius 64.2024
rwrist -25.6263
rhand -49.2847 -8.55844
rfingers 7.12502
rthumb -21.9024 -37.3387
lclavicle 1.21259e-014 4.13472e-014
lhumerus -18.1805 -17.7578 56.856
lradius 68.7137
lwrist 26.6744
lhand -35.0671 5.84356
lfingers 7.12502
lthumb -8.20956 35.6641
rfemur -11.0502 5.43316 17.2259
rtibia 35.3192
rfoot -21.5336 14.2471
rtoes 5.30523
lfemur -13.2743 -15.9047 -11.6055
ltibia 39.7675
lfoot -39.1237 4.56378
ltoes -25.9909
115
root -10.1443 19.7355 6.28107 12.2058 103.389 4.62025
lowerback 7.61507 -1.83547 -7.11853
upperback -1.17787 -3.17599 -2.04259
thorax -5.24516 -1.3577 2.22781
lowerneck -10.1311 -6.05009 -1.60614
upperneck 45.46 -6.14981 0.638161
head 19.2377 -1.7448 -0.206196
rclavicle -5.70512e-014 1.27222e-014
rhumerus -41.9985 2.25605 -51.7636
rradius 62.8016
rwrist -25.2021
rhand -48.1899 -9.67425
rfingers 7.12502
rthumb -20.8509 -38.5738
lclavicle -5.70512e-014 1.27222e-014
lhumerus -19.4341 -17.0773 58.5361
lradius 69.5056
lwrist 26.926
lhand -34.5228 6.72047
lfingers 7.12502
lthumb -7.68423 36.5609
rfemur -10.7631 5.58722 17.1642
rtibia 35.1723
rfoot -21.7529 14.2935
rtoes 5.51693
lfemur -13.314 -15.7925 -11.7329
ltibia 40.0212
lfoot -39.1699 4.53581
ltoes -26.253
116
root -10.0575 19.7286 6.6058 11.9849 103.677 4.50997
lowerback 7.51211 -1.81643 -7.01083
upperback -1.23029 -3.13294 -1.95121
thorax -5.24592 -1.33899 2.25565
lowerneck -10.0452 -6.11642 -1.7241
upperneck 45.5969 -6.08424 0.423251
head 19.2974 -1.75343 -0.272525
rclavicle 4.35338e-014 4.29375e-014
rhumerus -42.0509 1.35214 -52.0928
rradius 61.3688
rwrist -24.6723
rhand -46.8959 -10.871
rfingers 7.12502
rthumb -19.6072 -39.9022
lclavicle 4.35338e-014 4.29375e-014
lhumerus -20.7006 -16.4068 60.2199
lradius 70.2768
lwrist 27.0376
lhand -33.8964 7.63473
lfingers 7.12502
lthumb -7.07955 37.4963
rfemur -10.4843 5.75254 17.1171
rtibia 35.0481
rfoot -22.0091 14.3144
rtoes 5.70735
lfemur -13.3943 -15.672 -11.8465
ltibia 40.3197
lfoot -39.1835 4.50891
ltoes -26.5262
117
root -9.97065 19.721 6.93123 11.7809 104 4.42114
lowerback 7.43537 -1.79858 -6.91812
upperback -1.28238 -3.09513 -1.85803
thorax -5.25992 -1.32181 2.29535
lowerneck -9.96349 -6.19011 -1.83031
upperneck 45.7252 -6.04423 0.229665
head 19.3544 -1.76753 -0.335692
rclavicle 2.46493e-014 -1.27222e-014
rhumerus -42.1231 0.440861 -52.4048
rradius 59.9155
rwrist -24.0474
rhand -45.3987 -12.1043
rfingers 7.12502
rthumb -18.1673 -41.2759
lclavicle 2.46493e-014 -1.27222e-014
lhumerus -21.9722 -15.7572 61.894
lradius 71.0276
lwrist 27.0464
lhand -33.1994 8.56042
lfingers 7.12502
lthumb -6.40669 38.4435
rfemur -10.2229 5.91112 17.0878
rtibia 34.9666
rfoot -22.2796 14.3141
rtoes 5.87977
lfemur -13.5097 -15.5663 -11.9448
ltibia 40.6628
lfoot -39.1635 4.48615
ltoes -26.8056
118
root -9.88347 19.7126 7.25686 11.5645 104.35 4.32443
lowerback 7.37774 -1.78911 -6.84602
upperback -1.33385 -3.07183 -1.76307
thorax -5.28175 -1.31075 2.35068
lowerneck -9.88382 -6.26298 -1.92889
upperneck 45.8415 -6.01438 0.0524103
head 19.4052 -1.78279 -0.394501
rclavicle -1.43125e-014 -1.59028e-014
rhumerus -42.1997 -0.429806 -52.7116
rradius 58.4537
rwrist -23.3669
rhand -43.7255 -13.335
rfingers 7.12502
rthumb -16.5569 -42.6487
lclavicle -1.43125e-014 -1.59028e-014
lhumerus -23.2615 -15.1025 63.5528
lradius 71.7527
lwrist 26.9736
lhand -32.409 9.49364
lfingers 7.12502
lthumb -5.64363 39.3985
rfemur -9.98368 6.05406 17.063
rtibia 34.9435
rfoot -22.5478 14.3091
rtoes 6.05087
lfemur -13.6502 -15.4799 -12.0387
ltibia 41.0466
lfoot -39.1162 4.46181
ltoes -27.0794
119
root -9.79593 19.7034 7.58245 11.348 104.722 4.23422
lowerback 7.33916 -1.77904 -6.78078
upperback -1.38121 -3.04979 -1.67244
thorax -5.30988 -1.29988 2.40613
lowerneck -9.81218 -6.34495 -2.0257
upperneck 45.9477 -6.01459 -0.0959656
head 19.454 -1.80631 -0.445517
rclavicle 1.37161e-014 6.36111e-015
rhumerus -42.2957 -1.28261 -53.0084
rradius 56.9893
rwrist -22.6296
rhand -41.8843 -14.5249
rfingers 7.12502
rthumb -14.7837 -43.9777
lclavicle 1.37161e-014 6.36111e-015
lhumerus -24.5424 -14.4759 65.1885
lradius 72.4459
lwrist 26.8863
lhand -31.5623 10.4031
lfingers 7.12502
lthumb -4.82607 40.3281
rfemur -9.77396 6.1734 17.0449
rtibia 34.9905
rfoot -22.8005 14.2963
rtoes 6.19919
lfemur -13.8077 -15.4246 -12.1263
ltibia 41.4662
lfoot -39.0526 4.43585
ltoes -27.337
